# Blender 3.4.1
# www.blender.org
mtllib Wall_Standard.mtl
o Wall_Standard
v 1.000000 0.000000 -0.100000
v -1.000000 0.000000 -0.100000
v 1.000000 0.000000 0.100000
v -1.000000 0.000000 0.100000
v -1.000000 3.000000 0.100000
v 1.000000 3.000000 0.100000
v 1.000000 3.000000 -0.100000
v -1.000000 3.000000 -0.100000
vn -0.0000 -1.0000 -0.0000
vn -0.0000 1.0000 -0.0000
vn -0.0000 -0.0000 1.0000
vn -0.0000 -0.0000 -1.0000
vn 1.0000 -0.0000 -0.0000
vn -1.0000 -0.0000 -0.0000
vt 0.274505 0.977669
vt 0.666658 -0.000002
vt 0.271170 0.967093
vt 0.257436 0.977669
vt -0.000008 -0.000002
vt 0.266346 0.969848
vt 0.274505 0.975962
vt 0.666992 0.000000
vt 0.270297 0.967093
vt 0.257436 0.975962
vt 0.000000 0.000000
vt 0.265595 0.969848
vt 0.257436 0.975962
vt 0.000000 1.000000
vt 0.265595 0.981114
vt 0.274505 0.975962
vt 0.666992 1.000000
vt 0.270297 0.980187
vt 0.274505 0.977669
vt 0.666658 0.999999
vt 0.271170 0.980187
vt 0.257436 0.977669
vt -0.000008 0.999999
vt 0.266346 0.981114
s 0
usemtl Brick
f 4/10/1 2/4/1 1/1/1 3/7/1
f 5/13/2 6/16/2 7/19/2 8/22/2
f 1/2/4 2/5/4 8/23/4 7/20/4
f 3/9/5 1/3/5 7/21/5 6/18/5
f 2/6/6 4/12/6 5/15/6 8/24/6
usemtl Wooden_Wall
f 4/11/3 3/8/3 6/17/3 5/14/3
