# Blender 3.4.1
# www.blender.org
mtllib Wall_Standard__Door_.mtl
o Wall_Standard_(Door)
v 1.000000 0.000000 -0.100000
v -1.000000 0.000000 -0.100000
v 1.000000 0.000000 0.100000
v -1.000000 0.000000 0.100000
v -1.000000 3.000000 0.100000
v 1.000000 3.000000 0.100000
v 1.000000 3.000000 -0.100000
v -1.000000 3.000000 -0.100000
v 0.531345 0.000000 -0.100000
v -0.531345 0.000000 -0.100000
v -0.531345 0.000000 0.100000
v 0.531345 0.000000 0.100000
v 0.531345 2.062690 0.100000
v -0.531345 2.062690 0.100000
v -0.531345 2.062690 -0.100000
v 0.531345 2.062690 -0.100000
vn -0.0000 -1.0000 -0.0000
vn -0.0000 1.0000 -0.0000
vn -0.0000 -0.0000 1.0000
vn -0.0000 -0.0000 -1.0000
vn 1.0000 -0.0000 -0.0000
vn -1.0000 -0.0000 -0.0000
vt 0.272306 0.983517
vt 0.666654 -0.000002
vt 0.264583 0.976948
vt 0.276588 0.980792
vt -0.000008 -0.000002
vt 0.533333 0.078109
vt 0.272306 0.981901
vt 0.666992 0.000000
vt 0.263873 0.976948
vt 0.276588 0.979176
vt 0.000000 0.000000
vt 0.466667 0.078109
vt 0.276588 0.979176
vt 0.000000 1.000000
vt 0.466667 1.000000
vt 0.272306 0.981901
vt 0.666992 1.000000
vt 0.263873 0.986778
vt 0.272306 0.983517
vt 0.666654 0.999992
vt 0.264583 0.986778
vt 0.276588 0.980792
vt -0.000008 0.999992
vt 0.533333 1.000000
vt 0.268520 0.983517
vt 0.510437 -0.000002
vt 0.269630 0.973561
vt 0.259936 0.983517
vt 0.156209 -0.000002
vt 0.269630 0.973561
vt 0.259936 0.981901
vt 0.155273 0.000000
vt 0.269027 0.973561
vt 0.268520 0.981901
vt 0.510742 0.000000
vt 0.269027 0.973561
vt 0.510742 0.687500
vt 0.270932 0.977079
vt 0.269027 0.979786
vt 0.155273 0.687500
vt 0.267725 0.977079
vt 0.269027 0.979786
vt 0.156209 0.687557
vt 0.267725 0.977682
vt 0.269630 0.979786
vt 0.510437 0.687557
vt 0.270932 0.977682
vt 0.269630 0.979786
s 0
usemtl Brick
f 1/1/1 3/7/1 12/34/1 9/25/1
f 4/10/1 2/4/1 10/28/1 11/31/1
f 5/13/2 6/16/2 7/19/2 8/22/2
f 10/29/4 2/5/4 8/23/4 7/20/4 1/2/4 9/26/4 16/46/4 15/43/4
f 3/9/5 1/3/5 7/21/5 6/18/5
f 2/6/6 4/12/6 5/15/6 8/24/6
f 13/38/1 14/41/1 15/44/1 16/47/1
f 9/27/6 12/36/6 13/39/6 16/48/6
f 14/42/5 11/33/5 10/30/5 15/45/5
usemtl Wooden_Wall
f 12/35/3 3/8/3 6/17/3 5/14/3 4/11/3 11/32/3 14/40/3 13/37/3
