# Blender 3.4.1
# www.blender.org
mtllib Wall_Standard__Corner__Alt.mtl
o Wall_Standard_(Corner)_Alt
v -1.000000 -0.000000 -0.100000
v -1.000000 -0.000000 0.100000
v -1.000000 3.000000 0.100000
v -1.000000 3.000000 -0.100000
v 0.900000 -0.000000 0.100000
v 0.900000 3.000000 0.100000
v 1.100000 0.000000 2.000000
v 0.900000 0.000000 2.000000
v 0.900000 3.000000 2.000000
v 1.100000 3.000000 2.000000
v 1.100000 0.000000 -0.100000
v 1.100000 3.000000 -0.100000
vn -0.0000 -0.0000 -1.0000
vn -1.0000 -0.0000 -0.0000
vn -0.0000 -0.0000 1.0000
vn -0.0000 1.0000 -0.0000
vn -0.0000 -1.0000 -0.0000
vn 1.0000 -0.0000 -0.0000
vt 0.000000 0.000018
vt 0.274394 0.972339
vt 0.269102 0.975961
vt 0.274933 0.972339
vt 0.000000 0.000018
vt 0.269102 0.975961
vt 0.274933 0.980421
vt 0.000000 1.000000
vt 0.270543 0.983430
vt 0.000000 1.000000
vt 0.274394 0.980421
vt 0.271259 0.983430
vt 0.677734 0.000018
vt 0.666276 -0.000018
vt 0.275210 0.975961
vt 0.677734 1.000000
vt 0.270543 0.979849
vt 0.274512 0.983553
vt 0.666276 1.000000
vt 0.274394 0.972339
vt 0.269102 0.975961
vt 0.000000 -0.000018
vt 0.000000 -0.000018
vt 0.273855 0.972339
vt 0.271116 0.984279
vt 0.274512 0.979972
vt 0.000000 1.000000
vt 0.273855 0.980421
vt 0.275228 0.979972
vt 0.274394 0.980421
vt 0.000000 1.000000
vt 0.743164 0.000018
vt 0.275915 0.975961
vt 0.733089 -0.000018
vt 0.743164 1.000000
vt 0.271259 0.979849
vt 0.275228 0.983553
vt 0.733089 1.000000
s 0
usemtl Brick
f 11/32/1 1/1/1 4/10/1 12/35/1
f 1/2/2 2/4/2 3/7/2 4/11/2
f 3/9/4 6/17/4 12/36/4 4/12/4
f 6/18/4 9/26/4 10/29/4 12/37/4
f 8/24/3 7/20/3 10/30/3 9/28/3
f 1/3/5 11/33/5 5/15/5 2/6/5
f 5/15/5 11/33/5 7/21/5 8/25/5
f 7/22/6 11/34/6 12/38/6 10/31/6
usemtl Wooden_Wall
f 2/5/3 5/13/3 6/16/3 3/8/3
f 5/14/2 8/23/2 9/27/2 6/19/2
