# Blender 3.4.1
# www.blender.org
mtllib Floor_1x1.mtl
o Floor_1x1
v 0.000001 0.000000 1.000000
v 0.000001 -0.040000 1.000000
v 0.000001 0.000000 0.000000
v 0.000001 -0.040000 0.000000
v 1.000000 0.000000 1.000000
v 1.000000 -0.040000 1.000000
v 1.000000 -0.040000 0.000000
v 1.000000 0.000000 0.000000
vn -0.0000 -0.0000 -1.0000
vn -1.0000 -0.0000 -0.0000
vn 1.0000 -0.0000 -0.0000
vn -0.0000 1.0000 -0.0000
vn -0.0000 -1.0000 -0.0000
vn -0.0000 -0.0000 1.0000
vt 0.399474 0.995254
vt 0.999999 1.000000
vt 0.433956 0.004620
vt 0.433956 0.995254
vt 0.000000 1.000000
vt 0.468439 0.004620
vt 0.468439 0.995252
vt 0.399474 0.004620
vt 0.999999 0.000000
vt 0.502922 0.995252
vt 0.433956 0.004620
vt 0.000000 0.000000
vt 0.364991 0.004620
vt 0.000000 1.000000
vt 0.433956 0.995252
vt 0.399474 0.004620
vt 0.999999 1.000000
vt 0.468439 0.995252
vt 0.502922 0.004620
vt 0.399474 0.995254
vt 0.999999 0.000000
vt 0.468439 0.004620
vt 0.364991 0.995254
vt 0.000000 0.000000
s 0
usemtl Wooden_Floor_(1)
f 4/10/1 3/7/1 8/22/1 7/19/1
f 3/8/2 4/11/2 2/4/2 1/1/2
f 5/13/3 6/16/3 7/20/3 8/23/3
f 1/2/4 5/14/4 8/24/4 3/9/4
f 2/5/5 4/12/5 7/21/5 6/17/5
f 1/3/6 2/6/6 6/18/6 5/15/6
